<?xml version="1.0" standalone="no"?><!DOCTYPE svg PUBLIC "-//W3C//DTD SVG 1.1//EN" "http://www.w3.org/Graphics/SVG/1.1/DTD/svg11.dtd"><svg t="1738646675620" class="icon" viewBox="0 0 1228 1024" version="1.1" xmlns="http://www.w3.org/2000/svg" p-id="1492" xmlns:xlink="http://www.w3.org/1999/xlink" width="76.75" height="64"><path d="M570.88 912.896V178.2784l-7.0656-5.0176C512.8704 136.9088 427.52 116.6336 307.2 116.6336c-94.8224 0-168.2432 12.5952-220.16 35.9424v746.496a788.7872 788.7872 0 0 1 220.16-31.7952c88.2688 0 176.2816 15.2576 263.68 45.6192z m87.04 0.2048c88.0128-30.464 175.9744-45.824 263.68-45.824 73.216 0 146.6368 10.7008 220.16 32V153.0368c-52.992-23.7056-126.3616-36.4032-220.16-36.4032-118.6816 0-204.3392 20.2752-257.536 57.2416l-6.144 4.2496v734.976zM26.2144 85.8112C93.2864 48.3328 186.9824 29.5936 307.2 29.5936c136.8064 0 239.2064 24.2688 307.2 72.8064 69.888-48.5376 172.288-72.8064 307.2-72.8064 118.784 0 212.3264 18.7904 280.6784 56.4224a51.2 51.2 0 0 1 26.5216 44.8512v817.5104a51.2 51.2 0 0 1-68.1984 48.2816c-80.2816-28.2112-160-42.3424-239.0016-42.3424-101.376 0-203.776 23.1936-307.2 69.6832-102.4-46.4896-204.8-69.6832-307.2-69.6832-79.6672 0-159.2832 14.0288-238.9504 42.1376A51.2 51.2 0 0 1 0 948.224V130.56a51.2 51.2 0 0 1 26.2144-44.6976zM197.12 340.48h261.12a23.04 23.04 0 1 1 0 46.08h-261.12a23.04 23.04 0 1 1 0-46.08z m573.44 0h261.12a23.04 23.04 0 0 1 0 46.08h-261.12a23.04 23.04 0 0 1 0-46.08z m-573.44 153.6h261.12a23.04 23.04 0 1 1 0 46.08h-261.12a23.04 23.04 0 0 1 0-46.08z m573.44 0h261.12a23.04 23.04 0 0 1 0 46.08h-261.12a23.04 23.04 0 0 1 0-46.08z m-573.44 153.6h261.12a23.04 23.04 0 0 1 0 46.08h-261.12a23.04 23.04 0 0 1 0-46.08z m573.44 0h261.12a23.04 23.04 0 0 1 0 46.08h-261.12a23.04 23.04 0 0 1 0-46.08z" fill="#3C82FD" p-id="1493"></path></svg>